# xmcd CD database file
#
# Track frame offsets:
#	150
#	7180
#	32232
#	57702
#	85375
#	115650
#	141685
#	166302
#	193345
#	205212
#	242160
#
# Disc length: 4440 seconds
#
# Revision: 0
# Processed by: cddbd v1.5PL3 Copyright (c) Steve Scherf et al.
# Submitted via: CDex 1.51
#
DISCID=aa11560b
DTITLE=Extra Book 2 -迷宮の行方- - ヤミと帽子と本の旅人
DYEAR=1900
DGENRE=Anime
TTITLE0=オープニング 瞳の中の迷宮 tv size
TTITLE1=レイラ after #1
TTITLE2=レイラ after #2
TTITLE3=レイラ after #3
TTITLE4=レイラ after #4
TTITLE5=ヤミと帽子と本の旅人 another story 2 #1
TTITLE6=ヤミと帽子と本の旅人 another story 2 #2
TTITLE7=ヤミと帽子と本の旅人 another story 2 #3
TTITLE8=エンディング 永遠の祈りを捧げて tv size
TTITLE9=ヤミと帽子と本の旅人 extra story 2
TTITLE10=データ
EXTD=
EXTT0=
EXTT1=
EXTT2=
EXTT3=
EXTT4=
EXTT5=
EXTT6=
EXTT7=
EXTT8=
EXTT9=
EXTT10=
PLAYORDER=
